<svg viewBox="0 0 512 512" class="fl-svg" style="transform: scale(0.5);"><svg xmlns="http://www.w3.org/2000/svg" width="512" height="512" style="" viewBox="0 0 512 512" xmlns:xlink="http://www.w3.org/1999/xlink" data-bbox="95.3719957638084 71.6118007893643 321.25594365133816 320.4176134657826"><rect data-fl-background="" x="0" y="0" width="512" height="512" fill="transparent"></rect><defs transform="matrix(0.9372000098228455, 0, 0, 0.9372000098228455, 16.0775089263916, 46.1824836730957)"><path id="b" data-type="circle" data-cx="44.9" data-cy="54" data-r="38.4" d="M44.9,54m-38.4,0a38.4,38.4 0 1, 0 76.8,0a38.4,38.4 0 1, 0 -76.8,0"></path><clipPath id="a" transform="matrix(1, 0, 0, 1, 0, 0)" fill="rgba(13, 15, 69,1)"><use href="#b" overflow="visible" fill="rgba(13, 15, 69,1)"></use></clipPath></defs><g transform="matrix(0.9999989867210388, 0, 0, 0.9999989867210388, 20.398580779351505, 37.722405673198125)"><path clip-path="url(#a)" d="M78.4,92.5c0.9-0.4,1.7-0.9,2.4-1.6c0.6-0.6,1-1.2,1.4-1.9c2.4,0.6,5.1-0.1,7-2   c1-1,1.6-2.1,1.9-3.3c0.9-0.4,1.7-0.9,2.4-1.6c0.9-0.9,1.4-1.9,1.8-2.9c2.1,0.1,4.2-0.6,5.7-2.1c1.8-1.8,2.4-4.2,2.1-6.5   c0.2-0.2,0.5-0.4,0.7-0.6c1.4-1.4,2.1-3.2,2.2-5c1.6-2.8,1.1-6.4-1.2-8.8c-2.9-2.9-7.6-2.9-10.5,0c-1.4,1.4-2.1,3.2-2.2,5   c-0.8,1.5-1.1,3.2-0.8,4.8c-0.2,0.2-0.5,0.4-0.7,0.6c-0.9,0.9-1.4,1.9-1.8,2.9c-2.1-0.1-4.2,0.6-5.7,2.1c-1,1-1.6,2.1-1.9,3.3   c-0.9,0.4-1.7,0.9-2.4,1.6c-0.4,0.4-0.7,0.8-1,1.2c-1.7-0.6-3.6-0.6-5.3,0.1c-0.4-0.9-1-1.8-1.7-2.6c-3-3-8-3.1-11.1-0.1   c-0.2-1.7-1-3.4-2.3-4.7c-1.1-1.1-2.5-1.8-4-2.1c0.1-1.8-0.4-3.6-1.5-5.1c0.2-1.8-0.2-3.7-1.2-5.3c0.3-0.1,0.5-0.2,0.7-0.4   c0.4-0.4,0.5-0.9,0.4-1.4c0.4,0,0.7-0.2,1-0.4c0.4-0.4,0.5-1,0.4-1.6c0.4,0,0.9-0.1,1.2-0.4c0.3-0.3,0.5-0.8,0.4-1.2   c0.2-0.1,0.5-0.2,0.6-0.4c0.3-0.3,0.4-0.7,0.4-1c0.1,0,0.2-0.1,0.3-0.2c0.1-0.1,0.2-0.3,0.3-0.5c0.3,0,0.6-0.1,0.8-0.3   c0.2-0.2,0.3-0.6,0.3-0.9c0,0,0,0,0.1,0c0.4-0.4,0.4-1,0-1.4c-0.4-0.4-1-0.4-1.4,0c-0.2,0.2-0.3,0.4-0.3,0.6   c-0.3,0-0.6,0.1-0.8,0.3c-0.2,0.2-0.3,0.5-0.3,0.8c0,0,0,0.1-0.1,0.1c-0.5-0.1-1,0.1-1.4,0.4c-0.3,0.3-0.5,0.8-0.4,1.2   c0,0-0.1,0-0.1,0.1c-0.4-0.1-0.9,0.1-1.3,0.4c-0.3,0.3-0.5,0.7-0.4,1.2c-0.5-0.2-1.2-0.1-1.6,0.4c-0.2,0.2-0.4,0.5-0.4,0.8   c-0.6-0.2-1.2-0.1-1.7,0.3c-0.2,0.2-0.3,0.4-0.4,0.6c-0.7-0.3-1.4-0.4-2.1-0.5c-0.1-0.3-0.2-0.5-0.4-0.7c0,0-0.1-0.1-0.2-0.1   c0.1-0.1,0.3-0.2,0.4-0.3c0.6-0.6,0.6-1.6,0-2.2c0,0-0.1-0.1-0.1-0.1c0,0,0.1-0.1,0.1-0.1c0.4-0.4,0.5-0.9,0.4-1.4   c0.4,0,0.8-0.1,1.1-0.4c0.3-0.3,0.5-0.8,0.4-1.2c0.3-0.1,0.5-0.2,0.7-0.4c0.4-0.4,0.5-1,0.4-1.6c0.4,0,0.7-0.2,1-0.4   c0.4-0.4,0.5-1.1,0.4-1.6c0.1,0,0.1,0,0.2-0.1c0.4,0.2,0.8,0.1,1.1-0.2c0.2-0.2,0.3-0.6,0.3-0.9c0,0,0,0,0.1,0c0.4-0.4,0.4-1,0-1.4   c-0.4-0.4-1-0.4-1.4,0c-0.2,0.2-0.3,0.4-0.3,0.6c-0.3,0-0.6,0.1-0.8,0.3c-0.2,0.2-0.3,0.5-0.3,0.7c-0.5-0.1-0.9,0.1-1.3,0.4   c-0.3,0.3-0.4,0.6-0.4,0.9c-0.5-0.2-1.1-0.1-1.6,0.4c-0.4,0.4-0.5,0.8-0.4,1.3c-0.5-0.1-0.9,0.1-1.3,0.4c-0.1,0.1-0.2,0.3-0.3,0.4   c-0.5-0.2-1.2-0.1-1.6,0.3c-0.1,0.1-0.3,0.3-0.3,0.5c-0.1-0.1-0.1-0.2-0.2-0.3c-0.6-0.6-1.6-0.6-2.2,0c-0.1,0.1-0.1,0.1-0.1,0.2   c-0.9-0.2-1.9-0.2-2.8,0c0-0.4-0.2-0.8-0.5-1.1c-0.2-0.2-0.5-0.4-0.9-0.4c-0.3-0.5-0.7-0.9-1.1-1.3c-1.1-1.1-2.5-1.8-3.9-2.1   c0-0.1,0-0.2-0.1-0.3c0.7-2.6,0-5.5-2.1-7.6c-1.8-1.8-4.2-2.5-6.5-2.3c1-1.9,1.2-4.2,0.5-6.2c1.4-1.6,2-3.7,1.9-5.8   c1.6-0.2,3.1-0.9,4.4-2.1c0.8-0.8,1.3-1.7,1.7-2.6c2.4,0.6,5-0.1,6.9-2c2.1-2.1,2.7-5.2,1.7-7.8c1.9,0,3.8-0.7,5.2-2.2   c2.9-2.9,2.9-7.6,0-10.5c-2.9-2.9-7.6-2.9-10.5,0c-0.9,0.9-1.6,2-1.9,3.2c-2.4-0.5-4.9,0.2-6.7,2c-2,2-2.6,4.7-1.9,7.2   c-1.8,0-3.6,0.8-5,2.2c-1.5,1.5-2.2,3.4-2.2,5.3c-1.9,0.1-3.8,0.9-5.2,2.3c-2.2,2.2-2.8,5.4-1.9,8.2c-2.3,2.6-2.5,6.4-0.8,9.3   c-0.5,0.2-0.9,0.5-1.3,0.9c-1.1,1.1-1.6,2.5-1.6,4.2c-3.5,0.1-6.5,1.1-8.5,3.1c-7.9,7.9-0.5,28,16.5,44.9   c17,17,37.1,24.3,44.9,16.5c0.7-0.7,1.2-1.4,1.7-2.3c2.9,0.9,5.5,0.6,7.2-1c4.4,3,9.3,3.6,11.8,1.1C79,98.3,79.3,95.5,78.4,92.5z" transform="matrix(2.7960410118103027, 0, 0, 2.7960410118103027, 117.64301300048828, 96.7061538696289)" fill="rgba(13, 15, 69,1)"></path><path d="M86.8,12.1l0-0.1l-0.2-0.2l-0.1,0c-0.1,0-1.7-0.4-3.9-0.4c-2.6,0-6.2,0.5-8.5,2.8l-8.7,8.7  c-0.7,0.3-2,0.6-4.8,0.6c-5.2,0-7,1.9-9.4,4.3l-0.5,0.5c-0.2,0.2-1,1,3.1,6.2L49.2,39c-0.2,0.2-0.4,0.6-0.4,0.9  c0,0.3,0.1,0.7,0.4,0.9l1.9,1.9c0.5,0.5,1.3,0.5,1.8,0l4.2-4.2c0.5,0.6,0.9,1,1.3,1.4c0.4,0.4,0.9,0.8,1.4,1.3l-4.2,4.2  c-0.5,0.5-0.5,1.3,0,1.8l1.9,1.9c0.2,0.2,0.6,0.4,0.9,0.4s0.7-0.1,0.9-0.4l4.6-4.6c1.2,0.9,4.4,3.3,5.6,3.3c0.3,0,0.5-0.1,0.6-0.2  l0.5-0.5c2.4-2.3,4.2-4.2,4.3-9.4c0-2.7,0.3-4,0.5-4.6l8.8-8.8C88.5,20.4,86.9,12.5,86.8,12.1z M71.3,26.2l-2.2-0.7l8.9-5.3  l-3.8,4.7l-0.5,0.6l0.8,0.2l2.2,0.5l-9.3,5.3l4.1-4.5l0.5-0.6L71.3,26.2z M57.6,37.5l-0.4-0.4l-5,5c-0.1,0.1-0.3,0.1-0.4,0l-1.9-1.9  c-0.1-0.1-0.1-0.3,0-0.4l5.2-5.2l-0.2-0.3l-0.1-0.1c-1.6-2-3.3-4.6-3.3-5.2l0.4-0.4c2.3-2.3,3.9-3.9,8.7-4c2.4,0,4.2-0.3,5.2-0.8  l8.9-8.8c2.1-2.1,5.4-2.5,7.8-2.5c1.5,0,2.7,0.2,3.3,0.3L80,18.5l-12.1,7.2l3.2,1l-6.2,6.9l0.2-0.3l-6,6  C58.7,38.8,58.2,38.2,57.6,37.5z" transform="matrix(2.7960410118103027, 0, 0, 2.7960410118103027, 117.64301300048828, 96.7061538696289)" fill="rgba(13, 15, 69,1)"></path><path transform="matrix(2.7960410118103027, 0, 0, 2.7960410118103027, 117.64301300048828, 96.7061538696289)" data-type="circle" data-cx="52.5" data-cy="16.2" data-r="0.6" d="M52.5,16.2m-0.6,0a0.6,0.6 0 1, 0 1.2,0a0.6,0.6 0 1, 0 -1.2,0" fill="rgba(13, 15, 69,1)"></path><path transform="matrix(2.7960410118103027, 0, 0, 2.7960410118103027, 117.64301300048828, 96.7061538696289)" data-type="circle" data-cx="83.4" data-cy="29.8" data-r="0.6" d="M83.4,29.8m-0.6,0a0.6,0.6 0 1, 0 1.2,0a0.6,0.6 0 1, 0 -1.2,0" fill="rgba(13, 15, 69,1)"></path><path transform="matrix(2.7960410118103027, 0, 0, 2.7960410118103027, 117.64301300048828, 96.7061538696289)" data-type="circle" data-cx="56.8" data-cy="15.2" data-r="0.5" d="M56.8,15.2m-0.5,0a0.5,0.5 0 1, 0 1,0a0.5,0.5 0 1, 0 -1,0" fill="rgba(13, 15, 69,1)"></path><path transform="matrix(2.7960410118103027, 0, 0, 2.7960410118103027, 117.64301300048828, 96.7061538696289)" data-type="circle" data-cx="29.7" data-cy="34.9" data-r="0.5" d="M29.7,34.9m-0.5,0a0.5,0.5 0 1, 0 1,0a0.5,0.5 0 1, 0 -1,0" fill="rgba(13, 15, 69,1)"></path><path transform="matrix(2.7960410118103027, 0, 0, 2.7960410118103027, 117.64301300048828, 96.7061538696289)" data-type="circle" data-cx="20.6" data-cy="69.5" data-r="0.5" d="M20.6,69.5m-0.5,0a0.5,0.5 0 1, 0 1,0a0.5,0.5 0 1, 0 -1,0" fill="#e6e0bb"></path><path transform="matrix(2.7960410118103027, 0, 0, 2.7960410118103027, 117.64301300048828, 96.7061538696289)" data-type="circle" data-cx="39.1" data-cy="40.3" data-r="1.1" d="M39.1,40.3m-1.1,0a1.1,1.1 0 1, 0 2.2,0a1.1,1.1 0 1, 0 -2.2,0" fill="rgba(13, 15, 69,1)"></path><path transform="matrix(2.7960410118103027, 0, 0, 2.7960410118103027, 117.64301300048828, 96.7061538696289)" data-type="circle" data-cx="21.7" data-cy="57.6" data-r="1.1" d="M21.7,57.6m-1.1,0a1.1,1.1 0 1, 0 2.2,0a1.1,1.1 0 1, 0 -2.2,0" fill="#e6e0bb"></path><path transform="matrix(2.7960410118103027, 0, 0, 2.7960410118103027, 117.64301300048828, 96.7061538696289)" data-type="circle" data-cx="46" data-cy="61.7" data-r="0.6" d="M46,61.7m-0.6,0a0.6,0.6 0 1, 0 1.2,0a0.6,0.6 0 1, 0 -1.2,0" fill="#e6e0bb"></path><path transform="matrix(2.7960410118103027, 0, 0, 2.7960410118103027, 117.64301300048828, 96.7061538696289)" data-type="circle" data-cx="57.8" data-cy="59.9" data-r="0.4" d="M57.8,59.9m-0.4,0a0.4,0.4 0 1, 0 0.8,0a0.4,0.4 0 1, 0 -0.8,0" fill="rgba(13, 15, 69,1)"></path><path transform="matrix(2.7960410118103027, 0, 0, 2.7960410118103027, 117.64301300048828, 96.7061538696289)" data-type="circle" data-cx="66.7" data-cy="58" data-r="0.9" d="M66.7,58m-0.9,0a0.9,0.9 0 1, 0 1.8,0a0.9,0.9 0 1, 0 -1.8,0" fill="rgba(13, 15, 69,1)"></path><path transform="matrix(2.7960410118103027, 0, 0, 2.7960410118103027, 117.64301300048828, 96.7061538696289)" data-type="circle" data-cx="93" data-cy="44" data-r="0.6" d="M93,44m-0.6,0a0.6,0.6 0 1, 0 1.2,0a0.6,0.6 0 1, 0 -1.2,0" fill="rgba(13, 15, 69,1)"></path><path transform="matrix(2.7960410118103027, 0, 0, 2.7960410118103027, 117.64301300048828, 96.7061538696289)" data-type="circle" data-cx="81.6" data-cy="46.1" data-r="0.8" d="M81.6,46.1m-0.8,0a0.8,0.8 0 1, 0 1.6,0a0.8,0.8 0 1, 0 -1.6,0" fill="rgba(13, 15, 69,1)"></path><path transform="matrix(2.7960410118103027, 0, 0, 2.7960410118103027, 117.64301300048828, 96.7061538696289)" data-type="circle" data-cx="18.9" data-cy="43.2" data-r="0.8" d="M18.9,43.2m-0.8,0a0.8,0.8 0 1, 0 1.6,0a0.8,0.8 0 1, 0 -1.6,0" fill="#e6e0bb"></path><path transform="matrix(2.7960410118103027, 0, 0, 2.7960410118103027, 117.64301300048828, 96.7061538696289)" data-type="circle" data-cx="58.5" data-cy="79.4" data-r="0.4" d="M58.5,79.4m-0.4,0a0.4,0.4 0 1, 0 0.8,0a0.4,0.4 0 1, 0 -0.8,0" fill="#e6e0bb"></path><path transform="matrix(2.7960410118103027, 0, 0, 2.7960410118103027, 117.64301300048828, 96.7061538696289)" data-type="circle" data-cx="95.5" data-cy="42" data-r="0.4" d="M95.5,42m-0.4,0a0.4,0.4 0 1, 0 0.8,0a0.4,0.4 0 1, 0 -0.8,0" fill="rgba(13, 15, 69,1)"></path><path transform="matrix(2.7960410118103027, 0, 0, 2.7960410118103027, 117.64301300048828, 96.7061538696289)" data-type="circle" data-cx="95.7" data-cy="45.7" data-r="0.4" d="M95.7,45.7m-0.4,0a0.4,0.4 0 1, 0 0.8,0a0.4,0.4 0 1, 0 -0.8,0" fill="rgba(13, 15, 69,1)"></path><path transform="matrix(2.7960410118103027, 0, 0, 2.7960410118103027, 117.64301300048828, 96.7061538696289)" data-type="circle" data-cx="67.4" data-cy="8.2" data-r="0.5" d="M67.4,8.2m-0.5,0a0.5,0.5 0 1, 0 1,0a0.5,0.5 0 1, 0 -1,0" fill="rgba(13, 15, 69,1)"></path><path transform="matrix(2.7960410118103027, 0, 0, 2.7960410118103027, 117.64301300048828, 96.7061538696289)" data-type="polygon" d="M28.9 64.4L33.6 64.8L28.9 65.2L28.5 69.9L28.1 65.2L23.4 64.8L28.1 64.4L28.5 59.7Z" fill="#e6e0bb"></path><path transform="matrix(2.7960410118103027, 0, 0, 2.7960410118103027, 117.64301300048828, 96.7061538696289)" data-type="polygon" d="M49.3 74.6L52.1 74.8L49.3 75.1L49.1 77.9L48.8 75.1L46 74.8L48.8 74.6L49.1 71.8Z" fill="rgba(13, 15, 69,1)"></path><path transform="matrix(2.7960410118103027, 0, 0, 2.7960410118103027, 117.64301300048828, 96.7061538696289)" data-type="polygon" d="M80.7 62L83.2 62.2L80.7 62.5L80.5 64.9L80.3 62.5L77.9 62.2L80.3 62L80.5 59.6Z" fill="rgba(13, 15, 69,1)"></path><path transform="matrix(2.7960410118103027, 0, 0, 2.7960410118103027, 117.64301300048828, 96.7061538696289)" data-type="polygon" d="M39.9 21.9L47.1 22.5L39.9 23.1L39.2 30.4L38.6 23.1L31.3 22.5L38.6 21.9L39.2 14.6Z" fill="rgba(13, 15, 69,1)"></path></g></svg></svg>
