<svg width="60" height="60" viewBox="0 0 60 60" fill="none" xmlns="http://www.w3.org/2000/svg">
<circle cx="30" cy="30" r="30" fill="#F0B90B"/>
<path d="M16 25.541V21.8689L19.093 20.174L22.1047 21.9899L18.9709 23.6847V27.3569L16 25.541Z" fill="white"/>
<path d="M18.9709 29.9395L16 28.2043V38.0101L24.4651 42.8121V39.3821L18.9709 36.2346V29.9395Z" fill="white"/>
<path d="M29.9593 14L21.5349 18.8424L24.5058 20.4968L29.9593 17.3897L35.4535 20.4968L38.3837 18.8424L29.9593 14Z" fill="white"/>
<path d="M21.5349 28.7289V25.1375L24.5058 23.3619L29.9593 26.4691L35.4535 23.3619L38.5058 25.1375V28.7289L33.093 31.7957V38.0101L29.9593 39.7856L26.8256 38.0101V31.7957L21.5349 28.7289Z" fill="white"/>
<path d="M29.9593 20.2547L26.9477 21.9899L29.9593 23.7251L33.0523 21.9899L29.9593 20.2547Z" fill="white"/>
<path d="M40.8256 20.174L37.8547 21.9899L40.8256 23.6847V27.3569L44 25.5813V21.9899L40.8256 20.174Z" fill="white"/>
<path d="M44 28.2043L40.8256 29.9395V36.2346L35.4535 39.3821V42.8121L44 38.0101V28.2043Z" fill="white"/>
<path d="M35.4535 36.6784V33.087L38.5058 31.4729V34.9433L35.4535 36.6784Z" fill="white"/>
<path d="M21.3314 31.4729L24.5058 33.087L24.4651 36.6784L21.3314 34.9433V31.4729Z" fill="white"/>
<path d="M29.9593 42.5296L26.8256 40.7541V44.1438L29.9593 46L33.093 44.1438V40.7541L29.9593 42.5296Z" fill="white"/>
</svg>
