<svg width="54" height="54" viewBox="0 0 54 54" fill="none" xmlns="http://www.w3.org/2000/svg">
<path d="M21.9045 27.1038L27.1332 21.875L32.3619 27.1038L27.1332 32.3325L21.9045 27.1038ZM38.5425 27.1038L43.7713 21.8751L49 27.1038L43.7713 32.3326L38.5425 27.1038ZM5.26648 27.1037L10.4952 21.8749L15.724 27.1037L10.4952 32.3324L5.26648 27.1037ZM13.522 18.8491L27.1051 5.26599L32.3339 10.4947L18.7507 24.0779L13.522 18.8491Z" fill="#F5B638"/>
<path d="M35.517 24.0772L21.9338 10.4941L27.1626 5.26541L40.7458 18.8485L35.517 24.0772ZM18.7512 30.1986L32.3343 43.7818L27.1056 49.0105L13.5225 35.4274L18.7512 30.1986Z" fill="#F5B638"/>
<path d="M40.7471 35.428L27.1639 49.0112L21.9352 43.7824L35.5183 30.1993L40.7471 35.428Z" fill="#F5B638"/>
</svg>
