<svg width="18" height="21" viewBox="0 0 18 21" fill="none" xmlns="http://www.w3.org/2000/svg"><path d="M2 1C2 0.447715 1.55228 0 1 0C0.447715 0 0 0.447715 0 1H2ZM1 15.5H0C0 16.0523 0.447715 16.5 1 16.5L1 15.5ZM17 15.5L17.7071 16.2071C18.0976 15.8166 18.0976 15.1834 17.7071 14.7929L17 15.5ZM13.2071 10.2929C12.8166 9.90237 12.1834 9.90237 11.7929 10.2929C11.4024 10.6834 11.4024 11.3166 11.7929 11.7071L13.2071 10.2929ZM11.7929 19.2929C11.4024 19.6834 11.4024 20.3166 11.7929 20.7071C12.1834 21.0976 12.8166 21.0976 13.2071 20.7071L11.7929 19.2929ZM0 1V15.5H2V1H0ZM1 16.5H17V14.5H1V16.5ZM17.7071 14.7929L13.2071 10.2929L11.7929 11.7071L16.2929 16.2071L17.7071 14.7929ZM16.2929 14.7929L11.7929 19.2929L13.2071 20.7071L17.7071 16.2071L16.2929 14.7929Z" fill="#999999"></path></svg>