<svg width="32" height="32" viewBox="0 0 32 32" fill="none" xmlns="http://www.w3.org/2000/svg">
<path d="M0 16C0 7.16344 7.16344 0 16 0V0C24.8366 0 32 7.16344 32 16V16C32 24.8366 24.8366 32 16 32V32C7.16344 32 0 24.8366 0 16V16Z" fill="#0BA1C4"/>
<path d="M26.3641 9.07687C27.0526 18.4832 21.075 22.9256 15.7076 23.3999C10.7158 23.8425 6.02128 20.7439 5.61442 15.9854C5.27016 12.049 7.68 10.389 9.57345 10.2151C11.5138 10.0412 13.1413 11.4008 13.2821 13.0291C13.4229 14.61 12.4527 15.3214 11.7642 15.3847C11.2322 15.4321 10.5593 15.1001 10.4967 14.4045C10.4498 13.8038 10.6688 13.7089 10.6219 13.0766C10.528 11.9383 9.52651 11.796 8.99446 11.8434C8.33723 11.9067 7.14796 12.6813 7.32009 14.5942C7.49222 16.5387 9.32308 18.0722 11.7486 17.8509C14.3462 17.6137 16.1614 15.5744 16.3022 12.6971C16.3022 12.539 16.3335 12.3968 16.3961 12.2545C16.4274 12.1912 16.4587 12.1438 16.49 12.0806C16.5526 12.0015 16.6152 11.9067 16.7091 11.796C16.7717 11.717 16.8499 11.6379 16.9438 11.5431C18.0861 10.4522 22.186 7.90699 26.0512 8.71326C26.2389 8.76068 26.3641 8.90297 26.3641 9.07687Z" fill="white"/>
</svg>
