<svg width="22" height="22" viewBox="0 0 22 22" fill="none" xmlns="http://www.w3.org/2000/svg">
<path d="M10.7162 21.0988C8.66267 21.0988 6.65529 20.4899 4.94787 19.349C3.24045 18.2082 1.90967 16.5866 1.12383 14.6894C0.337993 12.7922 0.132384 10.7046 0.533002 8.69061C0.933619 6.67656 1.92247 4.82656 3.37451 3.37451C4.82656 1.92247 6.67656 0.933619 8.69061 0.533002C10.7046 0.132384 12.7922 0.337993 14.6894 1.12383C16.5866 1.90967 18.2082 3.24045 19.349 4.94787C20.4899 6.65529 21.0988 8.66267 21.0988 10.7162C21.0988 12.0796 20.8303 13.4298 20.3085 14.6894C19.7867 15.9491 19.0219 17.0937 18.0578 18.0578C17.0937 19.0219 15.9491 19.7867 14.6894 20.3085C13.4298 20.8303 12.0796 21.0988 10.7162 21.0988ZM10.7162 19.6162C12.4762 19.6162 14.1966 19.0943 15.66 18.1165C17.1234 17.1387 18.2639 15.7489 18.9375 14.1229C19.611 12.4968 19.7872 10.7076 19.4438 8.98146C19.1005 7.25529 18.253 5.66969 17.0085 4.42519C15.764 3.18069 14.1784 2.33318 12.4522 1.98982C10.726 1.64646 8.93681 1.82268 7.31079 2.4962C5.68477 3.16972 4.29499 4.31029 3.31719 5.77366C2.33939 7.23704 1.8175 8.95751 1.8175 10.7175C1.8182 13.0772 2.75601 15.3401 4.42472 17.0086C6.09342 18.677 8.35643 19.6145 10.7162 19.6148V19.6162ZM9.97484 14.4255H11.4575V15.9068H9.97484V14.4255ZM10.9535 5.91884C11.7209 5.87914 12.4748 6.13217 13.0628 6.62683C13.3308 6.86761 13.5417 7.16515 13.6801 7.49776C13.8185 7.83038 13.8809 8.1897 13.8628 8.5495C13.8835 9.13599 13.7101 9.71291 13.3695 10.1908C13.2495 10.3242 12.8628 10.6842 12.2215 11.2455C11.9993 11.4282 11.8177 11.6553 11.6882 11.9122C11.5532 12.1814 11.4846 12.479 11.4882 12.7802V12.9668H9.95216V12.7802C9.93535 12.3291 10.0268 11.8806 10.2188 11.4722C10.6457 10.8277 11.1728 10.2556 11.7802 9.7775L11.9402 9.59083C12.1682 9.32714 12.2957 8.99139 12.3002 8.64283C12.3185 8.45018 12.2936 8.25586 12.2272 8.07407C12.1608 7.89227 12.0547 7.72758 11.9166 7.59202C11.7785 7.45646 11.6119 7.35346 11.4289 7.29051C11.2459 7.22756 11.0511 7.20625 10.8588 7.22816C10.6203 7.20364 10.3795 7.24107 10.1598 7.33683C9.93996 7.4326 9.7486 7.58347 9.60417 7.77483C9.35748 8.16459 9.24077 8.62254 9.27084 9.08283H7.74949C7.72351 8.65648 7.78735 8.22945 7.93687 7.82934C8.08639 7.42923 8.31827 7.06498 8.61749 6.76016C8.93082 6.47076 9.29896 6.24708 9.70019 6.10235C10.1014 5.95761 10.5276 5.89476 10.9535 5.9175V5.91884Z" fill="#00E100"/>
</svg>
