<svg width="32" height="32" viewBox="0 0 32 32" fill="none" xmlns="http://www.w3.org/2000/svg">
<path d="M0 16C0 24.8366 7.16344 32 16 32C24.8366 32 32 24.8366 32 16C32 7.16344 24.8366 0 16 0C7.16344 0 0 7.16344 0 16Z" fill="white"/>
<path d="M17.53 12.7121L14.8924 12.7165L13.8635 10.231L17.53 12.7121Z" fill="#F6851B"/>
<path d="M13.8635 10.2294L18.5952 10.2197L17.5307 12.7112L13.8635 10.2294Z" fill="#F6851B"/>
<path d="M14.8919 12.716L8.25366 7.72266L13.863 10.2304L14.8919 12.716Z" fill="#E4761B"/>
<path d="M24.1789 7.68018L17.5303 12.7113L18.5948 10.2199L24.1789 7.68018Z" fill="#E2761B"/>
<path d="M10.9478 14.8422L7.93967 14.0587L7.77808 13.3574L10.9478 14.8422ZM8.04271 14.9015L7.93967 14.0587L10.9478 14.8422L8.04271 14.9015ZM8.46376 16.1187L10.9478 14.8422L12.2399 15.072L8.46376 16.1187Z" fill="#763D16"/>
<path d="M8.04199 14.9003L10.9471 14.841L8.46305 16.1176L8.04199 14.9003ZM21.5158 14.8299L24.6892 13.3325L24.5261 14.0367L21.5158 14.8299ZM24.4224 14.8833L21.5158 14.8299L24.5269 14.0367L24.4224 14.8833ZM23.9991 16.1057L20.2074 15.0627L21.5165 14.8299L23.9991 16.1057Z" fill="#763D16"/>
<path d="M24.4223 14.8835L23.999 16.1059L21.5157 14.8302L24.4223 14.8835ZM11.079 11.0288L10.9508 14.8435L7.78101 13.3609L11.079 11.0288ZM12.2429 15.0733L10.9508 14.8435L11.079 11.0288L12.2429 15.0733Z" fill="#763D16"/>
<path d="M12.3137 22.8233L13.2996 22.3044L13.4724 22.2637L12.3137 22.8233ZM18.9928 22.2644L19.1447 22.3052L20.1084 22.8293L18.9928 22.2644Z" fill="#E2761B"/>
<path d="M24.689 13.333L21.5155 14.8304L21.3621 11.0068L24.689 13.333Z" fill="#763D16"/>
<path d="M21.3613 11.0068L21.5147 14.8304L20.2056 15.0632L21.3613 11.0068Z" fill="#763D16"/>
<path d="M12.3138 22.8241L8.09513 24.3808L7.06177 20.1606L12.3138 22.8241Z" fill="#E4761B"/>
<path d="M7.38574 13.61L7.77788 13.3564L7.93948 14.0577L7.38574 13.61Z" fill="#763D16"/>
<path d="M25.4252 20.1641L24.3874 24.3991L20.1079 22.829L25.4252 20.1641Z" fill="#E4761B"/>
<path d="M11.0753 11.0267L14.893 12.7154L12.2392 15.0712L11.0753 11.0267ZM8.04196 14.9007L7.49415 14.3662L7.93893 14.0579L8.04196 14.9007ZM20.2066 15.0631L17.5298 12.7117L21.3615 11.0067L20.2066 15.0631ZM25.0813 13.5864L24.5261 14.0371L24.6892 13.3329L25.0813 13.5864ZM7.77733 13.3559L7.28955 10.4263L11.0753 11.026L7.77733 13.3559ZM8.46228 16.1172L7.67799 15.1342L8.04196 14.9L8.46228 16.1172Z" fill="#763D16"/>
<path d="M24.4221 14.8836L24.5266 14.0378L24.9714 14.3462L24.4221 14.8836ZM21.3621 11.0066L25.1678 10.3906L24.6897 13.3328L21.3621 11.0066Z" fill="#763D16"/>
<path d="M11.0588 16.3887L7.06177 20.1627L8.46281 16.1182L11.0588 16.3887Z" fill="#F6851B"/>
<path d="M23.9988 16.1057L24.422 14.8833L24.786 15.1176L23.9988 16.1057Z" fill="#763D16"/>
<path d="M10.4258 19.6729L7.05811 20.1621L11.0552 16.3882L10.4258 19.6729Z" fill="#F6851B"/>
<path d="M7.06177 20.1621L10.4295 19.6729L12.3146 22.8241L7.06177 20.1621Z" fill="#E4761B"/>
<path d="M21.3533 16.381L23.9997 16.106L25.4222 20.1646L21.3533 16.381ZM21.3533 16.381L25.423 20.1616L21.9834 19.6701L21.3533 16.381Z" fill="#F6851B"/>
<path d="M20.1069 22.8293L21.9817 19.6729L25.4213 20.1643L20.1069 22.8293Z" fill="#E4761B"/>
<path d="M8.46289 16.1173L12.239 15.0706L11.0589 16.3879L8.46289 16.1173ZM23.9989 16.1055L21.3525 16.3805L20.2072 15.0625L23.9989 16.1055Z" fill="#F6851B"/>
<path d="M12.239 15.0683L14.8928 12.7125L15.0922 16.4064L12.239 15.0683ZM15.0922 16.4027L11.0588 16.3819L12.239 15.0646L15.0922 16.4027ZM20.2071 15.0565L21.3524 16.3745L17.2924 16.4012L20.2071 15.0565ZM17.2924 16.4012L17.5311 12.7051L20.2079 15.0565L17.2924 16.4012Z" fill="#E4761B"/>
<path d="M8.25397 7.72488L14.8923 12.7182L11.0746 11.0296L8.25397 7.72488ZM11.0753 11.0288L7.28955 10.4291L8.25323 7.72413L11.0753 11.0288ZM24.1792 7.68262L25.1681 10.3928L21.3623 11.0088L24.1792 7.68262ZM21.3623 11.0095L17.5305 12.7145L24.1792 7.68336L21.3623 11.0095Z" fill="#763D16"/>
<path d="M14.8928 12.7151L17.5304 12.7114L17.2916 16.4075L14.8928 12.7151Z" fill="#F6851B"/>
<path d="M17.2916 16.4072H15.0922L14.8928 12.7134L17.2916 16.4072Z" fill="#F6851B"/>
<path d="M12.3146 22.8241L10.4294 19.6729L12.6941 19.5647L12.3146 22.8241ZM20.107 22.83L19.6934 19.5684L21.9818 19.6766L20.107 22.83ZM12.6593 17.942L11.0566 16.3853L15.0899 16.406L12.6593 17.942Z" fill="#CD6116"/>
<path d="M11.0588 16.3882L12.6941 19.5647L10.4294 19.6729L11.0588 16.3882Z" fill="#F6851B"/>
<path d="M11.0588 16.3882L12.6615 17.9449L12.6941 19.5676L11.0588 16.3882Z" fill="#E4751F"/>
<path d="M17.2917 16.4076L21.3518 16.3809L19.7314 17.9376L17.2917 16.4076Z" fill="#CD6116"/>
<path d="M21.9817 19.673L19.6934 19.5647L21.3516 16.3809L21.9817 19.673Z" fill="#F6851B"/>
<path d="M21.3516 16.3809L19.6934 19.5647L19.7319 17.9398L21.3516 16.3809Z" fill="#E4751F"/>
<path d="M13.1084 23.2846L12.3137 22.8242L14.5954 22.9881L13.1084 23.2846ZM17.7207 22.9881L20.1062 22.8279L19.2863 23.2875L17.7207 22.9881Z" fill="#C0AD9E"/>
<path d="M15.0923 16.4087L14.1138 17.2649L12.6616 17.9417L15.0923 16.4087Z" fill="#CD6116"/>
<path d="M14.5717 22.0845L14.5954 22.9874L12.3137 22.8236L14.5717 22.0845Z" fill="#D7C1B3"/>
<path d="M19.7321 17.9395L18.2747 17.2627L17.2917 16.4072L19.7321 17.9395Z" fill="#CD6116"/>
<path d="M14.7755 20.3937L12.3137 22.8237L12.694 19.562L14.7755 20.3937Z" fill="#E4761B"/>
<path d="M12.3137 22.824L14.7755 20.394L14.5717 22.0842L12.3137 22.824ZM17.7252 22.0827L20.1069 22.824L17.7214 22.9841L17.7252 22.0827Z" fill="#D7C1B3"/>
<path d="M17.519 20.3947L19.6932 19.5645L20.1069 22.8262L17.519 20.3947Z" fill="#E4761B"/>
<path d="M20.1069 22.8299L17.7251 22.0886L17.519 20.397L20.1069 22.8299Z" fill="#D7C1B3"/>
<path d="M12.6969 19.565L12.6643 17.9424L14.7058 18.4361L12.6969 19.565Z" fill="#F6851B"/>
<path d="M14.7031 18.4366L12.6616 17.9429L14.1138 17.2661L14.7031 18.4366Z" fill="#233447"/>
<path d="M19.6934 19.5644L17.6741 18.4354L19.7319 17.9395L19.6934 19.5644Z" fill="#F6851B"/>
<path d="M17.6741 18.4354L18.2737 17.2627L19.7311 17.9395L17.6741 18.4354Z" fill="#233447"/>
<path d="M14.1138 17.2649L15.0923 16.4087L14.7024 18.4354L14.1138 17.2649ZM18.2747 17.2649L17.6749 18.4376L17.2895 16.4072L18.2747 17.2649Z" fill="#CD6116"/>
<path d="M15.1714 17.5733L15.092 16.4087H17.2915L15.1714 17.5733Z" fill="#F6851B"/>
<path d="M14.7024 18.4354L15.0923 16.4087L15.1709 17.574L14.7024 18.4354Z" fill="#E4751F"/>
<path d="M17.2888 16.4072L17.1939 17.5726H15.168L17.2888 16.4072Z" fill="#F6851B"/>
<path d="M17.6759 18.4371L17.1985 17.575L17.2934 16.4097L17.6759 18.4371Z" fill="#E2761B"/>
<path d="M14.5957 22.9878L14.7284 23.6727L13.1086 23.2851L14.5957 22.9878ZM19.2873 23.2895L17.5824 23.675L17.7202 22.99L19.2873 23.2895Z" fill="#C0AD9E"/>
<path d="M14.7759 20.3945L12.6943 19.565L14.7025 18.436L14.7759 20.3945ZM17.6743 18.436L19.6936 19.565L17.5194 20.3952L17.6743 18.436Z" fill="#F6851B"/>
<path d="M15.1709 17.5737L15.1294 20.1475L14.7024 18.4358L15.1709 17.5737Z" fill="#E4751F"/>
<path d="M14.7024 18.4365L15.1294 20.1482L14.775 20.3943L14.7024 18.4365Z" fill="#F6851B"/>
<path d="M17.1974 17.5728L17.6748 18.4349L17.1655 20.1473L17.1974 17.5728Z" fill="#E4751F"/>
<path d="M17.5191 20.3952L17.1648 20.1484L17.6748 18.436L17.5191 20.3952Z" fill="#F6851B"/>
<path d="M15.1719 17.5737H17.1978L17.1652 20.149L15.1719 17.5737ZM17.1652 20.1482H15.1304L15.1719 17.5745L17.1652 20.1482Z" fill="#F6851B"/>
<path d="M14.7292 23.6723L14.5965 22.9874L14.5728 22.0845L14.7292 23.6723ZM17.7255 22.086L17.721 22.9896L17.5831 23.6746L17.7255 22.086Z" fill="#C0AD9E"/>
<path d="M14.5703 22.0852L14.749 21.822L14.7275 23.6753L14.5703 22.0852ZM14.7275 23.6731L14.749 21.8198H17.5355L14.7275 23.6731Z" fill="#C0AD9E"/>
<path d="M17.5378 21.8232L17.5837 23.6765H14.729L17.5378 21.8232ZM17.5837 23.6765L17.5378 21.8232L17.7261 22.0864L17.5837 23.6765Z" fill="#C0AD9E"/>
<path d="M14.7507 21.8218L14.572 22.0842L14.7759 20.394L14.7507 21.8218ZM17.5194 20.3948L17.7255 22.0864L17.5372 21.8233L17.5194 20.3948ZM15.1013 20.3014L15.1302 20.1479H17.1651L15.1013 20.3014Z" fill="#161616"/>
<path d="M14.7759 20.394L15.1302 20.1479L15.1013 20.3014L14.7759 20.394Z" fill="#161616"/>
<path d="M17.1649 20.1479L17.1753 20.3014H15.0996L17.1649 20.1479ZM17.1753 20.3014L17.1649 20.1479L17.5192 20.3948L17.1753 20.3014ZM14.7764 20.3941L14.875 20.5571L14.752 21.8218L14.7764 20.3941Z" fill="#161616"/>
<path d="M15.102 20.3013L14.8752 20.557L14.7766 20.3939L15.102 20.3013ZM17.5387 21.8231L17.403 20.5578L17.5201 20.3947L17.5387 21.8231Z" fill="#161616"/>
<path d="M17.5192 20.3947L17.4021 20.5578L17.1752 20.302L17.5192 20.3947ZM17.5377 21.8231H14.7512L14.8743 20.5585L17.5377 21.8231ZM14.8743 20.557H17.4021L17.5377 21.8224L14.8743 20.557ZM14.8743 20.557L15.1011 20.3013H17.1767L14.8743 20.557Z" fill="#161616"/>
<path d="M17.1752 20.3013L17.4021 20.557H14.8743L17.1752 20.3013Z" fill="#161616"/>
</svg>
