<svg width="32" height="32" viewBox="0 0 32 32" fill="none" xmlns="http://www.w3.org/2000/svg">
<rect width="32" height="32" rx="16" fill="#3375BB"/>
<path fill-rule="evenodd" clip-rule="evenodd" d="M15.9095 7.18481C16.1453 6.99179 16.4845 6.99178 16.7203 7.1848C19.3672 9.35148 22.3865 9.33363 23.5227 9.32691C23.5801 9.32657 23.6326 9.32626 23.6801 9.32626C23.8515 9.32626 24.0158 9.39505 24.1361 9.51721C24.2564 9.63937 24.3226 9.80468 24.32 9.97611C24.2666 13.4455 24.1248 15.9082 23.8491 17.7053C23.5734 19.5021 23.1555 20.696 22.5058 21.581C21.8537 22.4693 21.0144 22.979 20.072 23.4894C19.9103 23.577 19.7445 23.6651 19.5742 23.7556C18.741 24.1985 17.7978 24.6998 16.683 25.4836C16.4622 25.6389 16.1676 25.6389 15.9468 25.4836C14.8331 24.7006 13.8912 24.1995 13.0593 23.757C12.8882 23.6659 12.7216 23.5773 12.5593 23.4893C11.6176 22.9787 10.7796 22.4689 10.1288 21.5804C9.48057 20.6954 9.06411 19.5015 8.78947 17.705C8.51477 15.908 8.37355 13.4454 8.32014 9.97612C8.31751 9.80469 8.38376 9.63937 8.50405 9.51721C8.62434 9.39505 8.78862 9.32626 8.96007 9.32626C9.00699 9.32626 9.05902 9.32657 9.11585 9.32691C10.2431 9.33363 13.2625 9.35164 15.9095 7.18481ZM16.3149 8.49063C13.7582 10.3791 10.9919 10.5895 9.61129 10.607C9.67173 13.7181 9.81061 15.9144 10.0548 17.5115C10.3157 19.2183 10.6884 20.1783 11.1614 20.824C11.6319 21.4663 12.2472 21.864 13.1694 22.364C13.3211 22.4463 13.4802 22.5309 13.6466 22.6193C14.3932 23.0162 15.2868 23.4912 16.3149 24.1833C17.3444 23.4904 18.2392 23.0151 18.9871 22.6179C19.1528 22.5299 19.3112 22.4458 19.4624 22.3639C20.3857 21.8638 21.0024 21.4659 21.474 20.8235C21.9482 20.1777 22.3221 19.2177 22.5839 17.5112C22.8289 15.9142 22.9684 13.718 23.0288 10.6071C21.644 10.5899 18.8742 10.381 16.3149 8.49063Z" fill="white"/>
</svg>
